<?xml version="1.0" standalone="no"?>
<!DOCTYPE svg PUBLIC "-//W3C//DTD SVG 20010904//EN"
 "http://www.w3.org/TR/2001/REC-SVG-20010904/DTD/svg10.dtd">
<svg version="1.0" xmlns="http://www.w3.org/2000/svg"
 width="1200.000000pt" height="1200.000000pt" viewBox="0 0 1200.000000 1200.000000"
 preserveAspectRatio="xMidYMid meet">

<g transform="translate(0.000000,1200.000000) scale(0.100000,-0.100000)"
fill="#000000" stroke="none">
<path d="M3141 9604 c-17 -14 -35 -42 -41 -62 -6 -22 -10 -166 -10 -347 l0
-311 -77 8 c-43 3 -141 7 -218 7 -706 4 -1369 -266 -1888 -768 -489 -474 -785
-1071 -883 -1786 -25 -181 -25 -608 -1 -785 70 -498 224 -918 479 -1300 131
-198 207 -291 372 -456 223 -222 449 -385 727 -523 948 -472 2081 -338 2903
344 56 46 511 493 1011 995 l910 911 -423 421 -424 422 -916 -918 c-996 -996
-996 -996 -1217 -1106 -208 -103 -375 -147 -600 -157 -427 -18 -830 148 -1146
474 -335 345 -509 783 -509 1282 0 526 188 976 557 1332 277 267 606 411 973
426 138 5 330 -8 358 -26 8 -5 12 -166 14 -579 l3 -572 31 -31 c39 -39 95 -48
140 -22 18 10 172 169 343 353 172 184 316 336 320 338 5 2 158 -157 341 -353
l332 -355 54 47 c189 168 813 750 813 760 1 6 -169 194 -376 416 -1083 1158
-1815 1936 -1829 1941 -38 14 -93 6 -123 -20z"/>
</g>
</svg>
